# xmcd CD database file generated by Grip 3.0.5
# 
# Track frame offsets:
#       150
#       32090
#       60651
#       87178
#       114374
# 
# Disc length: 2244 seconds
# 
# Revision: 1
# Processed by: cddbd v1.4PL0 Copyright (c) Steve Scherf et al.
# Submitted via: Grip 3.0.5
# 
DISCID=3508c205
DTITLE=Landing - Fade In/Fade Out
DYEAR=2002
DGENRE=Space
TTITLE0=Forest Ocean Sound
TTITLE1=Against the Rain
TTITLE2=Constellations
TTITLE3=Whirlwind
TTITLE4=Pulse
EXTD=
EXTT0=
EXTT1=
EXTT2=
EXTT3=
EXTT4=
PLAYORDER=
